<?xml version="1.0" standalone="no"?>
<!DOCTYPE svg PUBLIC "-//W3C//DTD SVG 20010904//EN"
 "http://www.w3.org/TR/2001/REC-SVG-20010904/DTD/svg10.dtd">
<svg version="1.0" xmlns="http://www.w3.org/2000/svg"
 width="250.000000pt" height="250.000000pt" viewBox="0 0 250.000000 250.000000"
 preserveAspectRatio="xMidYMid meet">

<g transform="translate(0.000000,250.000000) scale(0.100000,-0.100000)"
fill="#000000" stroke="none">
<path d="M852 1991 c-10 -6 -15 -43 -18 -127 l-4 -119 -28 1 c-27 1 -28 -1
-30 -48 0 -27 -5 -54 -9 -61 -4 -7 -8 -30 -9 -52 -1 -22 -5 -73 -9 -113 -9
-84 -3 -82 -113 -41 -51 20 -64 22 -71 10 -10 -16 -2 -53 13 -63 7 -5 5 -8 -4
-8 -22 0 -175 -77 -190 -95 -10 -12 -1 -26 47 -76 58 -62 186 -159 208 -159 7
0 18 -6 24 -14 9 -10 4 -18 -21 -36 -51 -35 -102 -101 -86 -111 7 -5 9 -9 4
-9 -11 0 39 -40 51 -40 4 0 22 -14 38 -31 17 -17 38 -35 49 -41 16 -9 18 -7
13 13 -48 192 -27 377 66 569 77 158 235 286 417 337 148 40 168 41 300 13
211 -45 398 -188 485 -370 29 -62 33 -65 50 -52 28 20 142 170 133 176 -9 7
-176 85 -190 90 -10 3 -18 10 -18 17 0 6 -7 8 -16 5 -10 -4 -26 3 -41 19 -29
28 -32 20 49 116 27 31 48 59 48 62 0 3 -19 7 -42 9 l-43 3 -11 108 c-6 59
-14 110 -18 114 -20 21 -188 -72 -276 -153 -53 -49 -60 -53 -60 -33 0 39 -61
160 -79 156 -9 -2 -15 -8 -14 -15 2 -6 -4 -9 -12 -6 -8 4 -17 -1 -21 -10 -3
-9 -12 -16 -19 -16 -6 0 -20 -9 -30 -20 -10 -11 -24 -20 -32 -20 -8 0 -11 -4
-8 -10 3 -5 1 -10 -5 -10 -7 0 -26 -10 -43 -22 -18 -13 -43 -29 -56 -36 -29
-15 -39 -4 -66 75 -18 53 -18 53 -37 33 l-19 -20 -42 26 c-37 23 -181 94 -189
94 -2 0 -9 -4 -16 -9z"/>
<path d="M650 1785 c0 -9 9 -15 21 -15 18 0 19 2 9 15 -7 8 -16 15 -21 15 -5
0 -9 -7 -9 -15z"/>
<path d="M1635 1128 c-44 -25 -58 -75 -34 -121 16 -30 28 -37 65 -37 32 0 74
24 62 36 -4 4 -14 1 -22 -5 -8 -7 -30 -11 -48 -9 -39 4 -58 41 -42 86 11 32
62 43 84 18 18 -23 30 -20 30 8 0 17 -5 24 -17 24 -10 -1 -27 1 -38 5 -11 3
-29 1 -40 -5z"/>
<path d="M2016 1127 c-14 -10 -18 -29 -19 -85 -2 -71 -2 -72 23 -71 14 0 19 3
13 6 -20 7 -16 80 4 87 14 6 14 8 -3 21 -18 14 -18 16 -1 29 23 18 6 30 -17
13z"/>
<path d="M868 1118 c7 -7 12 -37 12 -68 0 -31 -5 -61 -12 -68 -9 -9 -1 -12 39
-12 44 0 55 4 72 26 12 15 21 39 21 54 0 15 -9 39 -21 54 -17 22 -28 26 -72
26 -40 0 -48 -3 -39 -12z m106 -41 c14 -39 -3 -79 -36 -88 -15 -4 -29 -4 -32
-1 -8 7 -8 117 0 124 13 14 60 -10 68 -35z"/>
<path d="M2087 1097 c-3 -8 -2 -38 1 -68 6 -46 10 -54 30 -57 12 -2 22 1 22 7
0 6 -6 10 -12 9 -17 -4 -23 62 -7 72 9 6 6 14 -8 29 -16 17 -22 19 -26 8z"/>
<path d="M1035 1023 c0 -41 3 -53 15 -53 12 0 15 8 12 34 -3 27 1 37 17 48 29
18 26 24 -11 24 l-33 0 0 -53z"/>
<path d="M1136 1064 c-48 -47 19 -122 74 -83 11 8 8 9 -13 4 -28 -6 -57 8 -57
26 0 5 16 9 35 9 39 0 55 21 35 45 -16 20 -54 19 -74 -1z m48 0 c27 -10 18
-24 -15 -24 -27 0 -30 2 -19 15 14 17 13 17 34 9z"/>
<path d="M1255 1070 c-4 -6 8 -10 29 -10 45 0 47 -17 4 -28 -26 -6 -33 -14
-33 -33 0 -22 4 -24 45 -25 l45 -1 -4 41 c-2 23 -8 47 -13 54 -12 14 -64 16
-73 2z m65 -64 c0 -8 -7 -16 -15 -20 -22 -8 -45 3 -38 20 7 18 53 18 53 0z"/>
<path d="M1385 1024 c0 -41 4 -54 15 -54 12 0 14 10 12 45 -4 43 -3 45 23 45
26 0 27 -2 23 -45 -2 -35 0 -45 12 -45 12 0 14 10 12 45 -4 43 -3 45 22 45 24
0 26 -3 26 -45 0 -31 4 -45 13 -45 9 0 12 10 10 33 -10 79 -5 75 -90 75 l-78
-1 0 -53z"/>
<path d="M1765 1023 c0 -40 4 -53 15 -53 11 0 15 11 15 37 0 30 5 40 23 48 33
14 27 23 -15 21 l-38 -1 0 -52z"/>
<path d="M1865 1070 c-4 -6 6 -10 24 -10 41 0 49 -19 12 -26 -36 -7 -56 -28
-47 -49 4 -10 19 -14 53 -14 l48 2 -3 41 c-3 22 -9 47 -14 54 -12 14 -64 16
-73 2z m63 -62 c-7 -21 -36 -34 -49 -21 -6 6 -8 16 -5 22 10 15 59 14 54 -1z"/>
<path d="M1145 851 c-3 -5 -1 -12 5 -16 14 -9 13 -118 -2 -133 -9 -9 2 -12 50
-12 57 0 62 2 62 22 0 17 -3 19 -12 10 -7 -7 -25 -12 -40 -12 -23 0 -28 4 -28
25 0 20 5 25 25 25 14 0 25 5 25 10 0 6 -11 10 -25 10 -21 0 -25 5 -25 30 0
27 3 30 30 30 17 0 33 -7 39 -17 9 -15 10 -14 11 10 0 26 -2 27 -54 27 -30 0
-57 -4 -61 -9z"/>
<path d="M1693 811 c-6 -10 -8 -22 -3 -27 5 -5 10 -27 12 -49 2 -33 7 -41 26
-43 l24 -4 -21 21 c-28 28 -27 69 2 81 12 5 16 9 8 9 -8 1 -19 8 -25 16 -10
13 -12 13 -23 -4z"/>
<path d="M1450 797 c-31 -16 -39 -66 -14 -91 19 -19 65 -18 72 2 3 11 0 12
-18 2 -18 -10 -25 -9 -37 3 -22 21 -6 39 30 35 26 -2 32 1 32 16 0 30 -35 48
-65 33z m44 -22 c4 -11 -2 -15 -24 -15 -29 0 -38 9 -23 23 12 12 41 7 47 -8z"/>
<path d="M1289 786 c6 -7 17 -31 25 -52 7 -21 19 -39 26 -39 7 0 23 24 36 53
23 51 23 52 3 52 -12 0 -19 -5 -16 -12 2 -7 -3 -26 -11 -43 -14 -28 -16 -28
-23 -10 -4 11 -8 30 -8 43 -1 16 -7 22 -22 22 -17 0 -19 -3 -10 -14z"/>
<path d="M1548 788 c7 -7 12 -26 12 -43 0 -17 -5 -36 -12 -43 -9 -9 -7 -12 13
-12 22 0 24 4 24 47 0 41 3 48 20 48 17 0 20 -8 23 -47 2 -31 8 -48 16 -48 8
0 11 11 9 33 -9 78 -9 77 -65 77 -40 0 -49 -3 -40 -12z"/>
<path d="M1787 793 c-17 -16 -5 -42 23 -52 31 -10 38 -25 19 -36 -5 -4 -18 0
-28 9 -18 17 -31 12 -31 -11 0 -10 11 -13 43 -11 35 2 43 7 45 26 3 18 -3 25
-27 33 -17 6 -31 15 -31 20 0 15 33 24 38 11 5 -17 22 -15 22 3 0 10 -10 15
-33 15 -19 0 -37 -3 -40 -7z"/>
<path d="M732 609 c-38 -34 -40 -45 -9 -52 12 -3 39 -10 60 -15 44 -12 49 0
17 41 -11 14 -20 30 -20 35 0 22 -16 19 -48 -9z"/>
</g>
</svg>
